<?xml version="1.0" ?><svg viewBox="0 0 64 64" xmlns="http://www.w3.org/2000/svg"><title/><g data-name="25-Hot cooking" id="_25-Hot_cooking"><polygon points="6 60 57 60 58 60 63 60 63 63 1 63 1 60 6 60" style="fill:#e3e3e3"/><path d="M12.52,56.97A3.994,3.994,0,0,1,12,55c0-2.21,1-8,2-8s6,6.79,6,9a3.129,3.129,0,0,1-.14.96C19.41,58.44,17.85,59,16,59A4.007,4.007,0,0,1,12.52,56.97Z" style="fill:#e7544c"/><path d="M35.46,57A4,4,0,0,1,28,55c0-2.21,3-8,4-8s4,5.79,4,8A3.989,3.989,0,0,1,35.46,57Z" style="fill:#e7544c"/><path d="M51.48,56.97A4.007,4.007,0,0,1,48,59c-1.85,0-3.41-.56-3.86-2.04A3.129,3.129,0,0,1,44,56c0-2.21,5-9,6-9s2,5.79,2,8A3.994,3.994,0,0,1,51.48,56.97Z" style="fill:#e7544c"/><path d="M9,31v4H7.24a2,2,0,0,1-1.79-1.11L4,31Z" style="fill:#bfbfbf"/><path d="M60,31l-1.45,2.89A2,2,0,0,1,56.76,35H55V31Z" style="fill:#bfbfbf"/><path d="M9,27v4H2a1,1,0,0,1-1-1V28a1,1,0,0,1,1-1Z" style="fill:#21abab"/><path d="M63,28v2a1,1,0,0,1-1,1H55V27h7A1,1,0,0,1,63,28Z" style="fill:#21abab"/><rect height="4" style="fill:#21abab" width="46" x="9" y="23"/><path d="M36,15v2H28V15a4,4,0,1,1,8,0Z" style="fill:#21abab"/><path d="M55,23H9a3.515,3.515,0,0,1,2.96-3.47L28,17h8l16.04,2.53A3.515,3.515,0,0,1,55,23Z" style="fill:#e3e3e3"/><path d="M55,53a4,4,0,0,1-3.52,3.97A3.994,3.994,0,0,0,52,55c0-2.21-1-8-2-8s-6,6.79-6,9a3.129,3.129,0,0,0,.14.96L44,57H35.46A3.989,3.989,0,0,0,36,55c0-2.21-3-8-4-8s-4,5.79-4,8a3.989,3.989,0,0,0,.54,2H20l-.14-.04A3.129,3.129,0,0,0,20,56c0-2.21-5-9-6-9s-2,5.79-2,8a3.994,3.994,0,0,0,.52,1.97A4,4,0,0,1,9,53V27H55V53Z" style="fill:#e3e3e3"/><path d="M52.04,19.53l-1.076-.17A2,2,0,0,1,49,21H15a2,2,0,0,1-1.964-1.64l-1.076.17A3.515,3.515,0,0,0,9,23H55A3.515,3.515,0,0,0,52.04,19.53Z" style="fill:#bfbfbf"/><path d="M33,15a2,2,0,0,1-.451-3.944A3.839,3.839,0,0,0,32,11a4,4,0,0,0-4,4v2h8V15Z" style="fill:#13969d"/><path d="M61,30H59a2,2,0,0,1-2-2V27H55v4h7a1,1,0,0,0,1-1V28A2,2,0,0,1,61,30Z" style="fill:#13969d"/><path d="M58,32h1.5l.5-1H55v4h1V34A2,2,0,0,1,58,32Z" style="fill:#a3a3a3"/><path d="M3,30H5a2,2,0,0,0,2-2V27H9v4H2a1,1,0,0,1-1-1V28A2,2,0,0,0,3,30Z" style="fill:#13969d"/><path d="M6,32H4.5L4,31H9v4H8V34A2,2,0,0,0,6,32Z" style="fill:#a3a3a3"/><path d="M4,60H4a2,2,0,0,0,2,2H58a2,2,0,0,0,2-2h3v3H1V60Z" style="fill:#a3a3a3"/><path d="M34.6,57.667a3.192,3.192,0,0,1-5.19,0A2.441,2.441,0,0,1,29,56.333C29,54.86,31.25,51,32,51s3,3.86,3,5.333A2.441,2.441,0,0,1,34.6,57.667Z" style="fill:#c74841"/><path d="M33.73,58A2,2,0,0,1,30,57c0-1.1,1.5-4,2-4s2,2.9,2,4A2,2,0,0,1,33.73,58Z" style="fill:#21abab"/><path d="M50.61,57.647A3.087,3.087,0,0,1,48,59c-1.387,0-2.558-.373-2.9-1.36A1.887,1.887,0,0,1,45,57c0-1.473,3.75-6,4.5-6S51,54.86,51,56.333A2.435,2.435,0,0,1,50.61,57.647Z" style="fill:#c74841"/><path d="M49.74,57.985A2,2,0,0,1,48,59c-.925,0-1.7-.28-1.93-1.02A1.565,1.565,0,0,1,46,57.5c0-1.1,2.5-4.5,3-4.5s1,2.9,1,4A2,2,0,0,1,49.74,57.985Z" style="fill:#21abab"/><path d="M13.39,57.647A3.085,3.085,0,0,0,16,59c1.387,0,2.557-.373,2.895-1.36A1.887,1.887,0,0,0,19,57c0-1.473-3.75-6-4.5-6S13,54.86,13,56.333A2.435,2.435,0,0,0,13.39,57.647Z" style="fill:#c74841"/><path d="M14.26,57.985A2,2,0,0,0,16,59c.925,0,1.7-.28,1.93-1.02A1.565,1.565,0,0,0,18,57.5c0-1.1-2.5-4.5-3-4.5s-1,2.9-1,4A2,2,0,0,0,14.26,57.985Z" style="fill:#21abab"/><path d="M15,27H9V53a4,4,0,0,0,3.52,3.97A3.994,3.994,0,0,1,12,55c0-2.21,1-8,2-8s6,6.79,6,9a3.129,3.129,0,0,1-.14.96L20,57h8.54A3.989,3.989,0,0,1,28,55a14.349,14.349,0,0,1,1.807-5.174A25,25,0,0,1,15,27Z" style="fill:#bfbfbf"/><path d="M35,51.5A10.5,10.5,0,0,1,36,55a3.989,3.989,0,0,1-.54,2H44l.14-.04A3.129,3.129,0,0,1,44,56a10.093,10.093,0,0,1,1.75-4H40A25.136,25.136,0,0,1,35,51.5Z" style="fill:#bfbfbf"/><path d="M51.7,51.929A22.2,22.2,0,0,1,52,55a3.994,3.994,0,0,1-.52,1.97A4,4,0,0,0,55,53V48A3.994,3.994,0,0,1,51.7,51.929Z" style="fill:#bfbfbf"/><path d="M9,23h6a2,2,0,0,0,2,2H55v2H9Z" style="fill:#13969d"/><rect height="12" rx="1" style="fill:#fff" width="2" x="51" y="34"/><rect height="3" rx="1" style="fill:#fff" width="2" x="51" y="30"/><path d="M55,23h0a3.511,3.511,0,0,0-2.963-3.467L36,17H28L11.963,19.532A3.511,3.511,0,0,0,9,23H9" style="fill:none;stroke:#000;stroke-linejoin:round;stroke-width:2px"/><path d="M25,1c0,1.333-2,1.333-2,2.667S25,5,25,6.333,23,7.667,23,9" style="fill:none;stroke:#000;stroke-linejoin:round;stroke-width:2px"/><path d="M33,1c0,1.333-2,1.333-2,2.667S33,5,33,6.333,31,7.667,31,9" style="fill:none;stroke:#000;stroke-linejoin:round;stroke-width:2px"/><path d="M41,1c0,1.333-2,1.333-2,2.667S41,5,41,6.333,39,7.667,39,9" style="fill:none;stroke:#000;stroke-linejoin:round;stroke-width:2px"/><polyline points="60 60 63 60 63 63 1 63 1 60 4 60" style="fill:none;stroke:#000;stroke-linejoin:round;stroke-width:2px"/><line style="fill:none;stroke:#000;stroke-linejoin:round;stroke-width:2px" x1="6" x2="58" y1="60" y2="60"/><path d="M36,55a4,4,0,0,1-8,0c0-2.209,3-8,4-8S36,52.791,36,55Z" style="fill:none;stroke:#000;stroke-linejoin:round;stroke-width:2px"/><path d="M52,55a4,4,0,0,1-4,4c-2.209,0-4-.791-4-3s5-9,6-9S52,52.791,52,55Z" style="fill:none;stroke:#000;stroke-linejoin:round;stroke-width:2px"/><path d="M12,55a4,4,0,0,0,4,4c2.209,0,4-.791,4-3s-5-9-6-9S12,52.791,12,55Z" style="fill:none;stroke:#000;stroke-linejoin:round;stroke-width:2px"/><path d="M51,57a4,4,0,0,0,4-4V23H9V53a4,4,0,0,0,4,4" style="fill:none;stroke:#000;stroke-linejoin:round;stroke-width:2px"/><line style="fill:none;stroke:#000;stroke-linejoin:round;stroke-width:2px" x1="35" x2="44" y1="57" y2="57"/><line style="fill:none;stroke:#000;stroke-linejoin:round;stroke-width:2px" x1="20" x2="29" y1="57" y2="57"/><path d="M58,27h4a1,1,0,0,1,1,1v2a1,1,0,0,1-1,1H55V27" style="fill:none;stroke:#000;stroke-linejoin:round;stroke-width:2px"/><path d="M60,31l-1.447,2.894A2,2,0,0,1,56.764,35H55" style="fill:none;stroke:#000;stroke-linejoin:round;stroke-width:2px"/><path d="M6,27H2a1,1,0,0,0-1,1v2a1,1,0,0,0,1,1H9V27" style="fill:none;stroke:#000;stroke-linejoin:round;stroke-width:2px"/><path d="M4,31l1.447,2.894A2,2,0,0,0,7.236,35H9" style="fill:none;stroke:#000;stroke-linejoin:round;stroke-width:2px"/><line style="fill:none;stroke:#000;stroke-linejoin:round;stroke-width:2px" x1="12" x2="9" y1="27" y2="27"/><line style="fill:none;stroke:#000;stroke-linejoin:round;stroke-width:2px" x1="16" x2="14" y1="27" y2="27"/><line style="fill:none;stroke:#000;stroke-linejoin:round;stroke-width:2px" x1="55" x2="18" y1="27" y2="27"/><path d="M32,11h0a4,4,0,0,1,4,4v2a0,0,0,0,1,0,0H28a0,0,0,0,1,0,0V15A4,4,0,0,1,32,11Z" style="fill:none;stroke:#000;stroke-linejoin:round;stroke-width:2px"/></g></svg>